<svg width="68" height="68" viewBox="0 0 68 68" fill="none" xmlns="http://www.w3.org/2000/svg">
<path d="M26.93 19.0633C30.8333 15.6467 37.1667 15.6467 41.07 19.0633C44.9767 22.48 44.9767 28.02 41.07 31.4367C40.3933 32.0333 39.6367 32.5233 38.8367 32.91C36.3533 34.1133 34.0033 36.24 34.0033 39V41.5M64 34C64 37.9397 63.224 41.8407 61.7164 45.4805C60.2087 49.1203 57.999 52.4274 55.2132 55.2132C52.4274 57.999 49.1203 60.2087 45.4805 61.7164C41.8407 63.224 37.9397 64 34 64C30.0603 64 26.1593 63.224 22.5195 61.7164C18.8797 60.2087 15.5726 57.999 12.7868 55.2132C10.001 52.4274 7.79125 49.1203 6.28361 45.4805C4.77597 41.8407 4 37.9397 4 34C4 26.0435 7.1607 18.4129 12.7868 12.7868C18.4129 7.16071 26.0435 4 34 4C41.9565 4 49.5871 7.16071 55.2132 12.7868C60.8393 18.4129 64 26.0435 64 34ZM34 51.5H34.0267V51.5267H34V51.5Z" stroke="white" stroke-width="8" stroke-linecap="round" stroke-linejoin="round"/>
</svg>
