<svg width="300" height="300" viewBox="0 0 300 300" fill="none" xmlns="http://www.w3.org/2000/svg">
<circle cx="150" cy="150" r="150" fill="#323456"/>
<circle cx="47.0618" cy="47.0618" r="47.0618" transform="matrix(-1 0 0 1 197.422 103.02)" fill="white"/>
<rect x="210.584" y="86.8447" width="7.11155" height="31.2351" rx="3.55578" transform="rotate(45 210.584 86.8447)" fill="white"/>
<rect x="108.792" y="188.498" width="7.11155" height="31.2351" rx="3.55578" transform="rotate(45 108.792 188.498)" fill="white"/>
<rect x="146.805" y="63" width="7.11155" height="31.2351" rx="3.55578" fill="white"/>
<rect x="146.805" y="206.765" width="7.11155" height="31.2351" rx="3.55578" fill="white"/>
<path d="M89.2199 92.8542C87.8313 91.4655 87.8313 89.2141 89.2199 87.8255V87.8255C90.6085 86.4369 92.8599 86.4369 94.2485 87.8255L111.306 104.883C112.695 106.272 112.695 108.523 111.306 109.912V109.912C109.918 111.301 107.666 111.301 106.278 109.912L89.2199 92.8542Z" fill="white"/>
<path d="M191.152 194.507C189.763 193.119 189.763 190.867 191.152 189.479V189.479C192.54 188.09 194.792 188.09 196.18 189.479L213.238 206.537C214.627 207.925 214.627 210.177 213.238 211.565V211.565C211.849 212.954 209.598 212.954 208.209 211.565L191.152 194.507Z" fill="white"/>
<path d="M66.5558 153.358C64.592 153.358 63 151.766 63 149.803V149.803C63 147.839 64.592 146.247 66.5558 146.247H90.6793C92.6431 146.247 94.2351 147.839 94.2351 149.803V149.803C94.2351 151.766 92.6431 153.358 90.6793 153.358H66.5558Z" fill="white"/>
<path d="M210.32 153.08C208.357 153.08 206.765 151.488 206.765 149.524V149.524C206.765 147.56 208.357 145.969 210.32 145.969H234.444C236.408 145.969 238 147.56 238 149.524V149.524C238 151.488 236.408 153.08 234.444 153.08H210.32Z" fill="white"/>
</svg>
