<svg width="68" height="68" viewBox="0 0 68 68" fill="none" xmlns="http://www.w3.org/2000/svg">
<path d="M43.2325 57.7599C45.8569 58.5855 48.5763 59.003 51.3091 58.9999C55.704 59.0068 60.0418 57.9212 63.9887 55.8266C64.1053 52.839 63.3198 49.8915 61.7511 47.431C60.1825 44.9706 57.9162 43.1312 55.2957 42.1917C52.6753 41.2521 49.8436 41.2637 47.2297 42.2246C44.6159 43.1855 42.3625 45.0434 40.811 47.5166M43.2325 57.7599V57.7499C43.2325 54.04 42.3525 50.55 40.811 47.5166M43.2325 57.7599V58.1133C37.3111 61.9769 30.5271 64.0126 23.6147 63.9999C16.4426 63.9999 9.73211 61.8499 4.00308 58.1133L4 57.7499C3.99764 53.0315 5.44491 48.4464 8.11365 44.7175C10.7824 40.9886 14.5208 38.3281 18.7394 37.1553C22.9581 35.9825 27.4171 36.3642 31.4134 38.2403C35.4097 40.1163 38.716 43.3799 40.811 47.5166M34.002 15.25C34.002 18.2337 32.908 21.0951 30.9605 23.2049C29.0131 25.3147 26.3718 26.5 23.6178 26.5C20.8637 26.5 18.2224 25.3147 16.275 23.2049C14.3276 21.0951 13.2335 18.2337 13.2335 15.25C13.2335 12.2663 14.3276 9.40483 16.275 7.29505C18.2224 5.18526 20.8637 4 23.6178 4C26.3718 4 29.0131 5.18526 30.9605 7.29505C32.908 9.40483 34.002 12.2663 34.002 15.25ZM59.3857 22.75C59.3857 25.0706 58.5348 27.2962 57.0201 28.9372C55.5055 30.5781 53.4512 31.5 51.3091 31.5C49.167 31.5 47.1127 30.5781 45.5981 28.9372C44.0834 27.2962 43.2325 25.0706 43.2325 22.75C43.2325 20.4293 44.0834 18.2037 45.5981 16.5628C47.1127 14.9219 49.167 14 51.3091 14C53.4512 14 55.5055 14.9219 57.0201 16.5628C58.5348 18.2037 59.3857 20.4293 59.3857 22.75Z" stroke="white" stroke-width="8" stroke-linecap="round" stroke-linejoin="round"/>
</svg>
